<svg width="33" height="32" viewBox="0 0 33 32" fill="none" xmlns="http://www.w3.org/2000/svg">
<circle cx="16.668" cy="16" r="16" fill="#F9F9FC"/>
<path d="M15.4196 20.8604V22.8904C15.4196 24.6104 13.8195 26.0004 11.8495 26.0004C9.87955 26.0004 8.26953 24.6104 8.26953 22.8904V20.8604C8.26953 22.5804 9.86955 23.8004 11.8495 23.8004C13.8195 23.8004 15.4196 22.5704 15.4196 20.8604Z" stroke="#194BFB" stroke-width="1.5" stroke-linecap="round" stroke-linejoin="round"/>
<path d="M15.4178 18.1097C15.4178 18.6097 15.2778 19.0697 15.0378 19.4697C14.4478 20.4397 13.2378 21.0497 11.8378 21.0497C10.4378 21.0497 9.22776 20.4297 8.63776 19.4697C8.39776 19.0697 8.25781 18.6097 8.25781 18.1097C8.25781 17.2497 8.65779 16.4797 9.29779 15.9197C9.94779 15.3497 10.8378 15.0098 11.8278 15.0098C12.8178 15.0098 13.7078 15.3597 14.3578 15.9197C15.0178 16.4697 15.4178 17.2497 15.4178 18.1097Z" stroke="#194BFB" stroke-width="1.5" stroke-linecap="round" stroke-linejoin="round"/>
<path d="M15.4196 18.11V20.86C15.4196 22.58 13.8195 23.8 11.8495 23.8C9.87955 23.8 8.26953 22.57 8.26953 20.86V18.11C8.26953 16.39 9.86955 15 11.8495 15C12.8395 15 13.7296 15.35 14.3796 15.91C15.0196 16.47 15.4196 17.25 15.4196 18.11Z" stroke="#194BFB" stroke-width="1.5" stroke-linecap="round" stroke-linejoin="round"/>
<path d="M26.6682 14.9702V17.0302C26.6682 17.5802 26.2282 18.0302 25.6682 18.0502H23.7082C22.6282 18.0502 21.6382 17.2602 21.5482 16.1802C21.4882 15.5502 21.7282 14.9602 22.1482 14.5502C22.5182 14.1702 23.0282 13.9502 23.5882 13.9502H25.6682C26.2282 13.9702 26.6682 14.4202 26.6682 14.9702Z" stroke="#194BFB" stroke-width="1.5" stroke-linecap="round" stroke-linejoin="round"/>
<path d="M6.66797 14.5V12.5C6.66797 9.78 8.30797 7.88 10.858 7.56C11.118 7.52 11.388 7.5 11.668 7.5H20.668C20.928 7.5 21.178 7.50999 21.418 7.54999C23.998 7.84999 25.668 9.76 25.668 12.5V13.95H23.588C23.028 13.95 22.5179 14.17 22.1479 14.55C21.7279 14.96 21.488 15.55 21.548 16.18C21.638 17.26 22.6279 18.05 23.7079 18.05H25.668V19.5C25.668 22.5 23.668 24.5 20.668 24.5H18.168" stroke="#194BFB" stroke-width="1.5" stroke-linecap="round" stroke-linejoin="round"/>
</svg>
