<svg width="12" height="12" viewBox="0 0 12 12" fill="none" xmlns="http://www.w3.org/2000/svg">
<rect width="12" height="12" rx="6" fill="#436CFF"/>
<path d="M2.79688 4.39961C2.79688 4.18744 2.88116 3.98395 3.03119 3.83392C3.18122 3.68389 3.3847 3.59961 3.59687 3.59961H5.99687C6.20905 3.59961 6.41253 3.68389 6.56256 3.83392C6.71259 3.98395 6.79687 4.18744 6.79687 4.39961V7.59961C6.79687 7.81178 6.71259 8.01527 6.56256 8.16529C6.41253 8.31532 6.20905 8.39961 5.99687 8.39961H3.59687C3.3847 8.39961 3.18122 8.31532 3.03119 8.16529C2.88116 8.01527 2.79688 7.81178 2.79688 7.59961V4.39961ZM7.81807 4.84201C7.75164 4.87521 7.69576 4.92624 7.6567 4.9894C7.61763 5.05256 7.59691 5.12534 7.59687 5.19961V6.79961C7.59691 6.87387 7.61763 6.94666 7.6567 7.00982C7.69576 7.07298 7.75164 7.12401 7.81807 7.15721L8.61807 7.55721C8.67904 7.58768 8.74679 7.60206 8.81487 7.59899C8.88296 7.59592 8.94913 7.57551 9.00712 7.53969C9.0651 7.50386 9.11297 7.45382 9.14618 7.3943C9.17939 7.33478 9.19684 7.26777 9.19687 7.19961V4.79961C9.19684 4.73145 9.17939 4.66444 9.14618 4.60492C9.11297 4.5454 9.0651 4.49536 9.00712 4.45953C8.94913 4.42371 8.88296 4.40329 8.81487 4.40023C8.74679 4.39716 8.67904 4.41154 8.61807 4.44201L7.81807 4.84201Z" fill="white"/>
</svg>
